#!OML:ASF H:\Male1\Project 1\Capture day 1\Session 1\Male1.ASF
:FULLY-SPECIFIED
:DEGREES
600
root 15.3204 15.3672 3.79785 180.339 -31.5632 181.487
lowerback 11.4964 0.451624 -1.53602
upperback 5.15727 -0.00524714 -1.11066
thorax -1.06888 -0.191365 -0.282035
lowerneck -3.30073 4.28554 8.85048
upperneck -7.93898 4.95343 -7.14069
head -1.54517 2.22907 -3.91757
rclavicle 1.21259e-014 -1.19271e-014
rhumerus -88.3643 32.2076 -124.595
rradius 94.6248
rwrist -36.7505
rhand -51.7565 42.4468
rfingers 7.12502
rthumb -24.2741 13.9635
lclavicle 1.21259e-014 -1.19271e-014
lhumerus -91.6935 -22.6599 115.571
lradius 105.196
lwrist 39.1591
lhand -53.1694 11.4466
lfingers 7.12502
lthumb -25.628 39.7419
rfemur -12.6718 10.0416 22.6119
rtibia 29.2418
rfoot -24.9684 -29.079
rtoes -25.9572
lfemur -13.1054 -10.7871 -17.535
ltibia 31.2846
lfoot -23.8469 19.2398
ltoes -11.6589
601
root 15.3119 15.3637 3.79405 180.617 -31.4484 181.556
lowerback 11.6384 0.5601 -1.28503
upperback 5.14324 0.156066 -1.20239
thorax -1.16011 -0.107336 -0.538248
lowerneck -3.70205 4.18964 8.62484
upperneck -7.99407 4.79865 -6.71023
head -1.52052 2.13742 -3.71443
rclavicle -4.35338e-014 5.56597e-015
rhumerus -88.4556 31.8905 -124.63
rradius 94.7305
rwrist -36.7128
rhand -51.7132 42.8992
rfingers 7.12502
rthumb -24.2326 14.4104
lclavicle -4.35338e-014 5.56597e-015
lhumerus -91.8341 -23.1221 115.604
lradius 105.234
lwrist 39.2803
lhand -52.3234 13.6653
lfingers 7.12502
lthumb -24.8175 42.0748
rfemur -13.3867 9.91322 22.6022
rtibia 29.8413
rfoot -24.5777 -28.9486
rtoes -26.7067
lfemur -13.5302 -10.9749 -17.4462
ltibia 31.5871
lfoot -24.2821 19.1361
ltoes -11.8706
602
root 15.3067 15.3479 3.79593 180.996 -31.3632 181.505
lowerback 11.8036 0.549794 -1.27413
upperback 5.29804 0.121195 -1.21562
thorax -1.0884 -0.133761 -0.554265
lowerneck -4.55187 4.30032 8.04128
upperneck -8.10252 4.88033 -6.16785
head -1.42483 2.15712 -3.39079
rclavicle 2.08724e-014 -8.74653e-015
rhumerus -88.6387 32.1237 -124.737
rradius 94.8533
rwrist -36.6555
rhand -51.7386 43.1954
rfingers 7.12502
rthumb -24.2569 14.7098
lclavicle 2.08724e-014 -8.74653e-015
lhumerus -91.4023 -23.1399 115.332
lradius 105.339
lwrist 39.3229
lhand -52.9826 14.4781
lfingers 7.12502
lthumb -25.4491 42.7991
rfemur -14.3733 9.592 22.4493
rtibia 30.8573
rfoot -24.9378 -28.2827
rtoes -25.5369
lfemur -14.1236 -11.259 -17.4652
ltibia 32.0831
lfoot -25.0636 18.4417
ltoes -10.4255
603
root 15.3052 15.3263 3.80425 181.589 -31.3016 181.247
lowerback 12.1479 0.530095 -1.41524
upperback 5.29262 0.0589832 -1.3115
thorax -1.28057 -0.169346 -0.566992
lowerneck -5.11052 4.36168 7.46996
upperneck -8.284 4.93186 -5.55947
head -1.4104 2.16724 -3.06172
rclavicle 6.61953e-014 0
rhumerus -88.8933 32.2493 -125.071
rradius 94.7658
rwrist -36.6886
rhand -51.8089 43.5717
rfingers 7.12502
rthumb -24.3243 15.0951
lclavicle 6.61953e-014 0
lhumerus -91.3573 -23.3173 115.332
lradius 105.379
lwrist 39.584
lhand -53.8558 10.0782
lfingers 7.12502
lthumb -26.2853 38.2772
rfemur -15.6874 9.08137 22.0793
rtibia 32.2286
rfoot -25.4174 -27.5826
rtoes -24.5483
lfemur -15.0785 -11.6392 -17.654
ltibia 32.9357
lfoot -26.149 17.1788
ltoes -7.79724
604
root 15.3087 15.2941 3.81661 182.393 -31.0379 180.62
lowerback 12.6879 0.62649 -2.00841
upperback 5.158 0.0907402 -1.45866
thorax -1.71417 -0.159193 -0.391104
lowerneck -5.32402 4.35585 7.0803
upperneck -8.57521 4.91041 -5.14547
head -1.48854 2.14447 -2.84937
rclavicle 2.60408e-014 3.18055e-015
rhumerus -89.285 32.2473 -125.49
rradius 94.5918
rwrist -36.8033
rhand -51.8963 43.8172
rfingers 7.12502
rthumb -24.4081 15.352
lclavicle 2.60408e-014 3.18055e-015
lhumerus -91.5633 -23.2882 115.37
lradius 105.31
lwrist 39.5183
lhand -53.1704 12.7298
lfingers 7.12502
lthumb -25.629 41.025
rfemur -17.3927 8.47608 21.3783
rtibia 34.2144
rfoot -25.669 -26.9688
rtoes -25.1065
lfemur -16.2463 -12.0654 -18.2154
ltibia 34.0459
lfoot -26.7725 16.2302
ltoes -6.78002
605
root 15.3114 15.2396 3.83881 182.454 -30.514 180.918
lowerback 13.5498 0.832248 -1.71618
upperback 5.16413 0.349955 -1.44125
thorax -2.17218 -0.0346316 -0.578861
lowerneck -5.5971 4.24814 6.81266
upperneck -8.97591 4.72896 -4.8189
head -1.59689 2.03304 -2.69395
rclavicle 1.00983e-013 -1.27222e-014
rhumerus -89.504 32.0903 -125.725
rradius 94.4701
rwrist -36.8641
rhand -51.8976 44.2429
rfingers 7.12502
rthumb -24.4093 15.7778
lclavicle 1.00983e-013 -1.27222e-014
lhumerus -91.8649 -23.4042 115.374
lradius 105.178
lwrist 39.1941
lhand -52.4975 13.9332
lfingers 7.12502
lthumb -24.9843 42.3197
rfemur -18.9984 7.79133 21.5943
rtibia 36.427
rfoot -25.6457 -26.3021
rtoes -26.4578
lfemur -17.4447 -12.3359 -18.0314
ltibia 35.7104
lfoot -26.5593 16.0356
ltoes -10.5093
606
root 15.3185 15.1642 3.86261 183.276 -30.0873 180.113
lowerback 14.315 1.07144 -2.37641
upperback 5.13794 0.513454 -1.69552
thorax -2.61542 0.0336097 -0.503841
lowerneck -6.00634 4.14804 6.73168
upperneck -9.21522 4.54389 -4.57878
head -1.62278 1.9171 -2.59555
rclavicle -4.41302e-014 6.36111e-015
rhumerus -89.8024 31.9267 -126.017
rradius 94.4437
rwrist -36.8612
rhand -52.0494 44.6756
rfingers 7.12502
rthumb -24.5548 16.2302
lclavicle -4.41302e-014 6.36111e-015
lhumerus -91.8968 -23.4875 115.345
lradius 105.035
lwrist 38.9133
lhand -52.2051 14.5202
lfingers 7.12502
lthumb -24.7041 42.9452
rfemur -21.2275 6.69627 20.7648
rtibia 39.0927
rfoot -25.0273 -25.7436
rtoes -28.6531
lfemur -19.0366 -12.74 -18.8953
ltibia 37.657
lfoot -25.7416 16.3564
ltoes -17.0179
607
root 15.319 15.0736 3.89596 182.95 -29.6916 180.961
lowerback 15.4028 1.07956 -1.58173
upperback 5.21424 0.575876 -1.57621
thorax -3.11023 0.0569445 -0.848257
lowerneck -6.34949 4.20317 6.71986
upperneck -9.47503 4.56856 -4.33206
head -1.653 1.90312 -2.50644
rclavicle 4.57205e-014 2.38542e-015
rhumerus -90.3792 32.0811 -126.52
rradius 94.4648
rwrist -36.8706
rhand -52.1994 44.8055
rfingers 7.12502
rthumb -24.6986 16.3796
lclavicle 4.57205e-014 2.38542e-015
lhumerus -92.0945 -23.0783 115.162
lradius 104.998
lwrist 38.4676
lhand -52.3508 13.6239
lfingers 7.12502
lthumb -24.8437 42.0298
rfemur -23.2403 5.68014 21.5742
rtibia 41.8717
rfoot -24.0824 -25.2164
rtoes -30.4519
lfemur -20.5462 -12.7573 -18.2089
ltibia 40.011
lfoot -25.9328 15.0313
ltoes -16.8781
608
root 15.3263 14.9745 3.91865 183.094 -29.0996 180.807
lowerback 16.2341 1.22665 -1.7429
upperback 5.44173 0.657227 -1.74
thorax -3.31308 0.0722456 -0.951708
lowerneck -6.37257 4.23795 6.69357
upperneck -10.1897 4.56912 -4.0037
head -1.89129 1.86297 -2.40528
rclavicle -3.97569e-015 -8.74653e-015
rhumerus -90.6828 32.2882 -126.964
rradius 94.3722
rwrist -36.7305
rhand -52.251 44.9136
rfingers 7.12502
rthumb -24.7481 16.4946
lclavicle -3.97569e-015 -8.74653e-015
lhumerus -92.2607 -22.7451 115.032
lradius 105.085
lwrist 37.9771
lhand -52.6374 12.0981
lfingers 7.12502
lthumb -25.1184 40.4658
rfemur -25.4516 4.92238 21.4714
rtibia 44.955
rfoot -23.9872 -23.999
rtoes -29.5121
lfemur -21.9577 -12.1572 -18.3672
ltibia 42.4486
lfoot -26.175 15.2852
ltoes -14.1569
609
root 15.3355 14.862 3.93027 183.268 -28.3449 180.47
lowerback 17.074 1.36863 -2.45812
upperback 5.56146 0.64738 -1.7872
thorax -3.64087 0.0444872 -0.604031
lowerneck -5.90784 4.35236 6.77412
upperneck -11.061 4.69752 -3.98942
head -2.25226 1.89175 -2.44418
rclavicle -3.33958e-014 -3.02153e-014
rhumerus -91.4447 32.7341 -127.554
rradius 94.2731
rwrist -36.3122
rhand -52.5903 45.4734
rfingers 7.12502
rthumb -25.0733 17.0994
lclavicle -3.33958e-014 -3.02153e-014
lhumerus -92.327 -22.0153 115.11
lradius 105.094
lwrist 37.6065
lhand -52.6 11.3677
lfingers 7.12502
lthumb -25.0825 39.7404
rfemur -27.6142 4.42166 21.2625
rtibia 48.0812
rfoot -24.2232 -22.8966
rtoes -27.9678
lfemur -23.3625 -10.6182 -18.6726
ltibia 45.1072
lfoot -26.2972 17.6611
ltoes -17.1716
610
root 15.3467 14.736 3.93147 183.397 -27.4626 180.053
lowerback 17.6225 1.52784 -3.18757
upperback 5.82743 0.637428 -1.95433
thorax -3.65562 0.00668268 -0.370204
lowerneck -5.41916 4.46957 6.80907
upperneck -11.9889 4.84482 -3.7544
head -2.64693 1.91975 -2.40537
rclavicle -2.42517e-014 3.97569e-015
rhumerus -91.7623 33.1987 -127.944
rradius 94.048
rwrist -35.8826
rhand -52.868 46.4652
rfingers 7.12502
rthumb -25.3393 18.1286
lclavicle -2.42517e-014 3.97569e-015
lhumerus -92.28 -21.5046 114.94
lradius 105.134
lwrist 37.4839
lhand -52.897 8.21372
lfingers 7.12502
lthumb -25.3671 36.5464
rfemur -29.6493 4.09045 21.0628
rtibia 51.3806
rfoot -24.5151 -22.3021
rtoes -27.9475
lfemur -24.7096 -8.35348 -19.0276
ltibia 47.8008
lfoot -27.7308 15.4231
ltoes -15.1719
